<?xml version="1.0" encoding="UTF-8"?>
<svg width="1345px" height="280px" viewBox="0 0 1345 280" version="1.1" xmlns="http://www.w3.org/2000/svg" xmlns:xlink="http://www.w3.org/1999/xlink">
    <!-- Generator: Sketch 55.1 (78136) - https://sketchapp.com -->
    <title>Artboard Copy 2</title>
    <desc>Created with Sketch.</desc>
    <g id="Artboard-Copy-2" stroke="none" stroke-width="1" fill="none" fill-rule="evenodd">
        <path d="M104.587848,280 C88.9407686,280 74.6664544,277.438206 61.764477,272.31454 C48.8624995,267.190874 37.8822578,259.782442 28.8234226,250.089021 C19.7645873,240.395599 12.6960568,228.41748 7.61761883,214.154303 C2.53918088,199.891126 1.42108547e-14,183.620269 1.42108547e-14,165.341246 C1.42108547e-14,141.24617 3.77445807,119.090111 11.3234874,98.8724036 C18.8725168,78.6546961 29.2351199,61.2067994 42.4116075,46.5281899 C55.5880951,31.8495804 70.891807,20.4253623 88.3232021,12.2551929 C105.754597,4.08502344 124.352381,0 144.117113,0 C159.764192,0 173.901253,3.8080727 186.52872,11.4243323 C199.156188,19.040592 209.450164,29.9109086 217.410959,44.0356083 L172.940535,78.9317507 C163.33268,64.5300961 152.626944,57.3293769 140.823007,57.3293769 C131.215152,57.3293769 121.950573,60.0296466 113.028993,65.4302671 C104.107413,70.8308875 96.2839905,78.1700822 89.5584916,87.4480712 C82.8329927,96.7260602 77.4801249,107.734852 73.4997276,120.474777 C69.5193303,133.214703 67.5291615,146.785289 67.5291615,161.186944 C67.5291615,180.850741 71.5094991,196.013794 79.4702937,206.676558 C87.4310883,217.339321 100.470125,222.670623 118.587796,222.670623 C125.72506,222.670623 132.79359,220.870443 139.7936,217.27003 C146.793609,213.669616 153.45038,209.099929 159.764114,203.560831 L186.940484,245.934718 C183.097341,249.535132 178.430739,253.343204 172.940535,257.35905 C167.450332,261.374896 161.20532,265.044494 154.205311,268.367953 C147.205302,271.691411 139.519133,274.460919 131.146573,276.676558 C122.774013,278.892197 113.921193,280 104.587848,280 Z" id="Path-Copy" fill="#D4D4D4" fill-rule="nonzero"></path>
        <polygon id="Path-Copy-2" fill="#D4D4D4" fill-rule="nonzero" points="228.465753 276.266667 281.818672 3.73333333 347.483802 3.73333333 304.801467 220.082872 401.657534 220.082872 390.986951 276.266667"></polygon>
        <path d="M443.873586,276.266667 L462.332427,180.670359 L420.082192,3.73333333 L488.174804,3.73333333 L496.788929,64.1099487 C498.429723,74.7318138 499.933762,84.7246028 501.30109,94.0886154 C502.668419,103.452628 504.172457,113.585176 505.813251,124.486564 L507.454037,124.486564 C512.923351,113.585176 518.050755,103.312869 522.836404,93.6693333 C527.622054,84.0257979 532.886189,73.8932497 538.628968,63.2713846 L570.624292,3.73333333 L641.178082,3.73333333 L527.96386,180.670359 L509.094823,276.266667 L443.873586,276.266667 Z" id="Path-Copy-3" fill="#D4D4D4" fill-rule="nonzero"></path>
        <path d="M619.068493,276.266667 L672.480741,3.73333333 L734.931984,3.73333333 C753.557887,3.73333333 770.334643,5.89960227 785.262756,10.2322051 C800.190869,14.564808 812.790555,21.1334944 823.062193,29.9384615 C833.33383,38.7434286 841.208634,49.8542919 846.686841,63.2713846 C852.165047,76.6884773 854.90411,92.621036 854.90411,111.069538 C854.90411,138.742292 851.137899,162.920649 843.605365,183.605333 C836.072831,204.290018 825.664394,221.48041 812.379743,235.177026 C799.095092,248.873641 783.413961,259.145949 765.335879,265.994256 C747.257797,272.842564 727.810455,276.266667 706.99327,276.266667 L619.068493,276.266667 Z M696.452055,220.266667 L706.322407,220.266667 C717.28952,220.266667 727.776664,218.433182 737.784155,214.766159 C747.791645,211.099136 756.565204,205.123335 764.105094,196.838579 C771.644984,188.553822 777.608262,177.824544 781.995108,164.650423 C786.381953,151.476302 788.575342,135.246571 788.575342,115.960745 C788.575342,105.638753 787.204474,96.8787726 784.462696,89.6805415 C781.720917,82.4823103 777.951029,76.6423236 773.152917,72.1604061 C768.354805,67.6784886 762.597157,64.4868679 755.879801,62.5854484 C749.162444,60.6840288 741.965384,59.7333333 734.288405,59.7333333 L728.5307,59.7333333 L696.452055,220.266667 Z" id="Combined-Shape" fill="#D4D4D4" fill-rule="nonzero"></path>
        <polygon id="Path-Copy-4" fill="#D1CE14" fill-rule="nonzero" points="880.69863 276.266667 934.44707 3.73333333 1345 3.73333333 1334.25031 59.9171282 989.022409 59.9171282 979.926519 107.715282 1197.72416 107.715282 1186.97447 163.899077 969.176831 163.899077 957.600244 220.082872 1059.30883 220.082872 1048.55914 276.266667"></polygon>
    </g>
</svg>